<?xml version="1.0" standalone="no"?>
<!DOCTYPE svg PUBLIC "-//W3C//DTD SVG 1.1//EN" "http://www.w3.org/Graphics/SVG/1.1/DTD/svg11.dtd" >
<svg xmlns="http://www.w3.org/2000/svg">
<metadata>Generated by IcoMoon</metadata>
<defs>
<font id="icomoon" horiz-adv-x="1024">
<font-face units-per-em="1024" ascent="960" descent="-64" />
<missing-glyph horiz-adv-x="1024" />
<glyph unicode="&#x20;" horiz-adv-x="512" d="" />
<glyph unicode="&#xe900;" glyph-name="tag" d="M941.62 357.79l-339.41-339.41c-28.12-28.12-75.13-26.69-105 3.19l-411.64 411.63c-14.432 14.27-23.369 34.070-23.369 55.958 0 0.426 0.003 0.852 0.010 1.276l-0.001-0.064 7.88 331.53c0.9 37.79 30.22 67.11 68 68l331.53 7.88c0.366 0.006 0.799 0.010 1.232 0.010 21.883 0 41.679-8.934 55.941-23.352l411.637-411.637c29.88-29.88 31.31-76.89 3.19-105.010zM169.51 725.49c0-35.899 29.101-65 65-65s65 29.101 65 65v0c0 35.899-29.101 65-65 65s-65-29.101-65-65v0zM306.636 408.704v0q25.456 25.456 50.912 0l221.869-221.869q25.456-25.456 0-50.912v0q-25.456-25.456-50.912 0l-221.869 221.869q-25.456 25.456 0 50.912z" />
<glyph unicode="&#xe901;" glyph-name="tel" d="M642.682 321.219c-6.588 1.854-14.154 2.92-21.969 2.92-30.819 0-57.767-16.574-72.416-41.296l-0.214-0.39c-4.547-7.927-12.656-13.364-22.086-14.134l-0.1-0.007h-11.703c-91.034 0.108-166.415 66.989-179.803 154.292l-0.128 1.015c-0.185 1.217-0.291 2.62-0.291 4.049 0 10.233 5.435 19.197 13.576 24.163l0.125 0.071c24.090 15.075 39.876 41.465 39.876 71.541 0 46.455-37.659 84.114-84.114 84.114-44.948 0-81.662-35.256-83.996-79.623l-0.009-0.208v-4.389c-0.143-1.861-0.224-4.029-0.224-6.217s0.081-4.357 0.241-6.504l-0.017 0.286c13.815-199.155 178.758-355.478 380.214-355.478 0.56 0 1.119 0.001 1.678 0.004h19.419c46.434 0.028 84.066 37.676 84.066 84.114 0 38.632-26.044 71.181-61.531 81.048l-0.591 0.14zM472.259 525.044c64.443-0.138 116.646-52.342 116.785-116.771v-0.013c3.182-10.018 12.4-17.149 23.284-17.149s20.102 7.132 23.236 16.977l0.047 0.173c0 0 0 0 0 0 0 90.266-73.106 163.457-163.339 163.596h-0.013c-10.018-3.182-17.149-12.4-17.149-23.284s7.132-20.102 16.977-23.236l0.173-0.047zM486.4 655.97c-2.162 0.696-4.65 1.097-7.232 1.097-13.465 0-24.381-10.916-24.381-24.381s10.916-24.381 24.381-24.381c2.581 0 5.069 0.401 7.404 1.145l-0.173-0.047c103.173-0.139 186.758-83.809 186.758-187.002v0c3.182-10.018 12.4-17.149 23.284-17.149s20.102 7.132 23.236 16.977l0.047 0.173c-0.138 128.855-104.489 233.292-233.299 233.569h-0.027zM500.297 740.571c-2.044 0.619-4.394 0.975-6.827 0.975-13.465 0-24.381-10.916-24.381-24.381s10.916-24.381 24.381-24.381c2.433 0 4.782 0.356 6.999 1.020l-0.173-0.044c141.848-0.277 256.732-115.332 256.732-257.219 0-0.086 0-0.172 0-0.258v0.013c3.052-10.227 12.373-17.554 23.406-17.554s20.353 7.328 23.361 17.382l0.044 0.173c0 0.073 0 0.158 0 0.244 0 167.74-135.841 303.752-303.516 304.030h-0.027zM512 960c-282.77 0-512-229.23-512-512s229.23-512 512-512c282.77 0 512 229.23 512 512v0c0 282.77-229.23 512-512 512v0zM512-15.238c-255.839 0-463.238 207.399-463.238 463.238s207.399 463.238 463.238 463.238c255.839 0 463.238-207.399 463.238-463.238v0c0-255.839-207.399-463.238-463.238-463.238v0z" />
<glyph unicode="&#xe902;" glyph-name="line-chart" d="M726.5 677.3c-2.2 0-3.9-1.7-3.9-3.7 0-1 0.4-2 1.2-2.7l82.7-77.5-223.9-183.6-151.9 123.3-240.5-189.1v-81.7l240.6 189.1 151.9-123.3 270.3 221.8 68.3-64.1c1.5-1.4 4-1.4 5.5 0 0.7 0.7 1.1 1.6 1.1 2.6v185.2c0 1-0.4 1.9-1.1 2.6s-1.7 1.1-2.8 1.1h-197.5zM121.1 861.8c12.7 0 23.1-10.3 23.1-23.1v-760.8h760.8c12.7 0 23.1-10.3 23.1-23.1s-10.3-23.1-23.1-23.1l-807-0.1v807c0 12.9 10.4 23.2 23.1 23.2z" />
<glyph unicode="&#xe903;" glyph-name="customer" d="M739.915 133.427l-196.224 108.598c57.364 56.623 92.896 135.243 92.896 222.163 0 3.867-0.070 7.717-0.21 11.55l0.016-0.555v131.506c0 86.825-115.811 184.002-232.090 184.002s-235.028-96.977-235.028-184.002v-131.506c0.084-91.149 37.564-173.528 97.922-232.636l0.056-0.055-201.3-109.065s-52.562-23.443-52.562-52.562v-78.944c0-0.020 0-0.043 0-0.067 0-28.993 23.503-52.496 52.496-52.496 0.024 0 0.047 0 0.071 0h673.958c29.043 0 52.591 23.525 52.629 52.559v78.948c0 30.923-52.629 52.562-52.629 52.562zM730.164 11.671h-654.526v55.635c4.514 3.299 9.636 6.39 15.026 9.018l0.603 0.265 4.341 2.137 201.3 109.065c19.57 10.749 32.613 31.222 32.613 54.741 0 19.596-9.056 37.078-23.21 48.488l-0.119 0.093c-46.061 47.594-74.486 112.501-74.603 184.046v131.529c0 44.681 84.421 121.688 172.782 121.688 90.031 0 169.776-75.938 169.776-121.688v-131.506c0.125-2.977 0.196-6.469 0.196-9.979 0-67.495-26.312-128.844-69.239-174.349l0.117 0.125c-14.562-11.5-23.824-29.155-23.824-48.973 0-23.476 12.996-43.917 32.186-54.52l0.32-0.162 196.224-108.598c1.736-0.935 3.941-1.937 5.744-2.738 5.514-2.484 10.228-5.183 14.648-8.272l-0.288 0.191v-56.303zM958.046 288.509l-199.163 108.598c59.065 57.412 95.714 137.617 95.714 226.382 0 2.383-0.026 4.76-0.079 7.13l0.006-0.353v131.44c0 86.825-118.75 184.937-234.962 184.937-78.944-2.597-149.108-38.117-197.564-93.198l-0.263-0.305c27.818-0.024 54.823-3.456 80.635-9.902l-2.292 0.485c32.508 25.408 73.962 40.742 118.997 40.742 0.171 0 0.342 0 0.513-0.001h-0.026c89.964 0 172.581-76.94 172.581-122.69v-131.506c0.045-1.792 0.070-3.901 0.070-6.017 0-69.234-27.341-132.082-71.815-178.337l0.081 0.084c-14.546-11.5-23.797-29.146-23.797-48.952 0-23.492 13.014-43.944 32.225-54.542l0.321-0.162 199.163-108.598c1.529-0.748 3.45-1.538 5.421-2.22l0.389-0.117c5.517-2.523 10.229-5.242 14.653-8.343l-0.293 0.195v-55.368h-126.030c17.139-15.896 28.809-37.476 32.002-61.727l0.056-0.52h103.388c0 0 0.001 0 0.001 0 28.949 0 52.439 23.373 52.628 52.277v77.96c0.067 30.99-52.562 52.629-52.562 52.629z" />
<glyph unicode="&#xe904;" glyph-name="notice" d="M604.692 854.818c-12.488 0-24.331-3.841-34.898-10.721l-329.742-218.342c-13.608-8.8-29.934-14.565-46.585-14.565h-66.107c-35.854 0.961-64.027-27.213-64.027-61.946v-192.084c0-34.897 28.174-62.91 62.906-62.91h66.109c16.33 0 33.136-4.798 46.584-14.566l330.865-218.336c10.722-6.885 22.25-10.727 34.898-10.727 34.893 0 63.065 28.174 63.065 63.070v678.215c0.96 34.738-28.174 62.911-63.067 62.911zM111.834 357.001v192.244c0 7.681 6.885 14.564 14.566 14.564h63.069v-221.217h-63.23c-7.681 0-14.405 6.885-14.405 14.409zM619.097 114.495c0-8.806-7.685-14.569-14.57-14.569-2.877 0-5.919 0.96-7.68 2.883l-330.869 217.375c-7.68 4.803-15.525 9.765-24.33 12.487v240.745c8.806 2.878 16.33 7.681 24.33 12.484l330.869 218.495c2.882 1.761 4.803 2.882 7.68 2.882 6.885 0 14.57-5.923 14.57-14.569v-678.214zM770.68 566.853c-10.721 8.806-26.091 6.884-34.092-3.843-8.806-10.722-6.885-26.092 3.843-34.093 26.091-21.292 41.777-53.304 41.777-87.24 0-33.133-14.566-64.027-39.696-85.316-10.727-8.806-11.528-24.331-2.883-34.097 4.803-5.92 11.523-8.806 18.407-8.806 5.924 0 10.727 1.76 15.526 5.923 36.818 29.935 57.306 75.714 57.306 123.095 0.001 47.542-21.447 93.162-60.188 124.377zM836.472 675.378c-10.727 7.685-26.092 4.803-34.097-6.88-7.685-10.726-4.803-26.091 6.885-34.097 62.906-42.737 100.845-113.489 100.845-189.202 0-80.676-40.661-153.349-109.651-195.125-11.522-6.885-15.525-22.25-7.68-33.132 4.798-7.685 12.482-11.527 20.488-11.527 3.843 0 8.8 0.96 12.483 3.841 83.559 50.423 132.861 138.78 132.861 236.904-0.8 91.398-46.42 176.718-122.134 229.216z" />
<glyph unicode="&#xe905;" glyph-name="message2" d="M949.48 959.772h-874.846c-41.015 0-74.35-33.79-74.35-75.317v-691.048c0-41.527 33.335-75.374 74.35-75.374h296.375l135.388-181.807 141.247 181.807h301.836c40.958 0 74.35 33.79 74.35 75.374v690.934c0 41.583-33.335 75.374-74.35 75.374zM290.8 487.848c-0.034 0-0.074 0-0.114 0-37.735 0-68.336 30.542-68.433 68.254v0.009c0 37.715 30.718 68.263 68.661 68.263 37.829 0 68.547-30.605 68.547-68.263 0-37.715-30.718-68.263-68.604-68.263zM525.852 487.848c-24.461 0-47.101 13.084-59.389 34.131-5.782 9.783-9.199 21.558-9.199 34.131s3.416 24.349 9.372 34.448l-0.173-0.317c12.122 20.543 34.143 34.108 59.333 34.108 37.772 0 68.421-30.501 68.66-68.216v-0.023c0-37.715-30.718-68.263-68.604-68.263zM756.978 487.848c-0.051 0-0.111 0-0.171 0-37.735 0-68.336 30.542-68.433 68.254v0.009c0 37.715 30.718 68.263 68.604 68.263s68.604-30.605 68.547-68.263c0-37.715-30.718-68.263-68.547-68.263z" />
<glyph unicode="&#xe906;" glyph-name="message" d="M901.145 64.512h-270.165l-110.933-115.883c-7.339-8.021-17.749-12.629-28.672-12.629-11.093 0.171-21.675 4.608-29.355 12.629l-110.933 115.883h-228.181c-69.12 1.365-124.075 58.539-122.88 127.659v640c-1.365 69.291 53.589 126.464 122.88 127.829h778.24c69.12-1.365 124.075-58.539 122.88-127.659v-640c1.365-69.291-53.76-126.464-122.88-127.829zM938.862 832.341c-0.341 23.381-19.285 42.325-42.667 42.667h-768.341c-23.381-0.341-42.325-19.285-42.667-42.667v-640c0.341-23.381 19.285-42.325 42.667-42.667h247.637c17.749-0.341 33.28-12.288 38.4-29.355l77.483-80.896 94.208 97.621c7.68 7.851 18.261 12.459 29.355 12.629h281.941c23.381 0.341 42.325 19.285 42.667 42.667v640h-0.683zM746.862 448.341c-35.499 0-64.171 28.672-64.171 64.171s28.672 64.171 64.171 64.171 64.171-28.672 64.171-64.171c0-35.328-28.501-64-64-64.171h-0.171zM533.358 448.341c-35.499-0.341-64.512 27.989-64.853 63.488s27.989 64.512 63.488 64.853c35.499 0.341 64.512-27.989 64.853-63.488v-0.683c0.171-35.157-28.331-64-63.488-64.171zM319.684 448.341c-35.328 0.171-63.659 29.013-63.488 64.171 0.171 35.328 29.013 63.659 64.171 63.488 35.328-0.171 63.659-29.013 63.488-64.171s-29.013-63.488-64.171-63.488z" />
<glyph unicode="&#xe907;" glyph-name="line" d="M736.072 499.136c-23.909 103.379-115.192 179.269-224.2 179.269s-200.291-75.89-223.897-177.719l-0.303-1.55h-287.672v-102.374h287.672c23.909-103.379 115.192-179.269 224.2-179.269s200.291 75.89 223.897 177.719l0.303 1.55h287.672v102.374zM511.872 268.794c-98.945 0-179.155 80.211-179.155 179.155s80.211 179.155 179.155 179.155c98.945 0 179.155-80.211 179.155-179.155v0c0-98.945-80.211-179.155-179.155-179.155v0z" />
<glyph unicode="&#xe908;" glyph-name="car2" d="M561.97 260.856h-166.037c-3.193 67.053-57.474 118.142-124.528 118.142s-121.335-54.281-124.528-118.142h-83.018c-15.965 0-31.93 15.965-47.895 44.702-22.351 44.702-22.351 121.335 0 153.265 12.772 22.351 41.509 31.93 83.018 31.93 57.474 111.755 118.142 178.809 185.195 201.16 98.983 35.123 252.248 31.93 306.529 15.965s159.651-47.895 229.897-185.195c41.509-25.544-25.544 0 98.983-31.93s98.983-140.493 98.983-185.195c0-28.737-19.158-44.702-54.281-44.702h-153.265c-3.193 67.053-57.474 118.142-124.528 118.142s-124.528-54.281-124.528-118.142zM277.792 174.644c-44.702 0-79.825 35.123-79.825 79.825s35.123 79.825 79.825 79.825 79.825-35.123 79.825-79.825-35.123-79.825-79.825-79.825zM683.305 174.644c-44.702 0-79.825 35.123-79.825 79.825s35.123 79.825 79.825 79.825 79.825-35.123 79.825-79.825-35.123-79.825-79.825-79.825zM210.739 503.525h197.967v146.879c-70.246 0-121.335-15.965-153.265-51.088s-47.895-67.053-44.702-95.79zM689.691 503.525c-9.579 35.123-35.123 70.246-73.439 102.176-41.509 31.93-102.176 47.895-185.195 41.509v-143.686h258.634z" />
<glyph unicode="&#xe909;" glyph-name="guarantee" d="M895.59 802.605c-125.446 5.447-245.541 47.869-356.98 126.129l-21.122 14.814-21.067-14.814c-111.371-78.247-231.478-120.682-356.133-126.102h-39.376v-331.722c0-242.989 167.622-451.066 407.648-505.993l10.473-1.679 7.523 1.679c239.971 54.927 407.566 263.004 407.566 505.993v331.722l-38.53-0.028zM746.086 578.321l-267.728-277.777c-6.718-6.198-17.285-5.789-23.498 0.928l-166.284 176.538c-6.198 6.718-5.789 17.285 0.928 23.498l4.246 3.919c6.718 6.198 17.285 5.789 23.498-0.928l150.050-159.307 250.948 260.492c6.417 6.526 16.998 6.608 23.511 0.191l4.11-4.055c6.54-6.403 6.622-16.985 0.219-23.498z" />
<glyph unicode="&#xe90a;" glyph-name="find-house" d="M609.28-53.248h-351.744c-78.336 0-142.336 64-142.336 142.336v337.408c0 11.264 9.216 20.48 20.48 20.48s20.48-9.216 20.48-20.48v-336.896c0-55.808 45.568-101.376 101.376-101.376h351.744c11.264 0 20.48-9.216 20.48-20.48s-9.216-20.992-20.48-20.992zM131.584 457.216h28.16v-40.96h-28.16v40.96zM962.56 416.256h-99.328c-11.264 0-20.48 9.216-20.48 20.48s9.216 20.48 20.48 20.48h99.328c5.632 0 9.216 0.512 11.264 1.536-1.024 2.048-3.072 5.12-7.168 9.216l-425.472 433.152c-7.168 8.192-17.92 12.8-29.184 12.8s-22.016-4.608-29.696-12.8l-425.472-433.152c-4.096-4.096-6.144-7.168-7.168-9.216 2.048-0.512 6.144-1.536 11.264-1.536h70.144c11.264 0 20.48-9.216 20.48-20.48s-9.216-20.48-20.48-20.48h-70.144c-34.816 0-46.592 16.384-50.688 25.6-4.096 9.728-7.168 29.696 16.896 54.272l425.984 433.664c15.36 15.872 36.352 25.088 58.88 25.088s43.52-8.704 58.88-25.088l425.472-433.152c24.064-24.576 20.992-44.544 16.896-54.272-3.584-9.728-15.872-26.112-50.688-26.112zM721.92 126.976c-4.096 0-8.192 2.048-11.264 5.632-8.704 11.264-14.848 24.064-18.432 37.376-10.752 40.96 4.608 83.968 37.888 109.568 6.144 4.608 14.848 3.584 19.456-2.56s3.584-14.848-2.56-19.456c-24.576-18.944-35.328-50.176-27.648-80.384 2.56-9.728 7.168-18.944 13.312-27.648 4.608-6.144 3.584-14.848-2.56-19.456-2.56-2.56-5.632-3.072-8.192-3.072v0zM943.616-38.912c-7.168 0-14.336 3.072-18.944 9.728l-63.488 85.504c-7.68 10.24-5.632 25.088 5.12 32.768 10.24 7.68 25.088 5.632 32.768-5.12l63.488-85.504c7.68-10.24 5.632-25.088-5.12-32.768-4.096-3.072-8.704-4.608-13.824-4.608v0zM780.288 39.424c-91.136 0-164.864 73.728-164.864 164.864s73.728 164.864 164.864 164.864 164.864-73.728 164.864-164.864-73.728-164.864-164.864-164.864zM780.288 342.016c-75.776 0-137.728-61.952-137.728-137.728s61.952-137.728 137.728-137.728c75.776 0 137.728 61.952 137.728 137.728s-61.952 137.728-137.728 137.728z" />
<glyph unicode="&#xe90b;" glyph-name="price" d="M874.667 853.333h-149.333l106.667-149.333zM917.333 21.333v554.667c0 23.564-19.103 42.667-42.667 42.667h-128c-23.564 0-42.667-19.103-42.667-42.667v0-554.667h-85.333v384c0 23.564-19.103 42.667-42.667 42.667v0h-128c-23.564 0-42.667-19.103-42.667-42.667v0-384h-85.333v256c0 23.564-19.103 42.667-42.667 42.667h-128c-23.564 0-42.667-19.103-42.667-42.667v0-256h-64v-42.667h938.667v42.667zM277.333 21.333h-128v256h128zM576 21.333h-128v384h128zM874.667 21.333h-128v554.667h128zM162.347 431.147l-26.027 33.707 292.267 224.853 85.333-85.333 262.4 201.813 26.027-33.707-292.267-224.853-85.333 85.333-262.4-201.813z" />
<glyph unicode="&#xe90c;" glyph-name="house-map" d="M512 176.64l-17.28 24.32c-8.96 12.373-217.387 306.133-217.387 481.707 0 129.603 105.064 234.667 234.667 234.667s234.667-105.064 234.667-234.667v0c0-175.573-208.427-469.333-217.387-481.707zM512 874.667c-106.039 0-192-85.961-192-192v0c0-133.76 141.867-356.907 192-431.573 50.133 74.667 192 298.667 192 431.573 0 106.039-85.961 192-192 192v0zM512 576c-58.91 0-106.667 47.756-106.667 106.667s47.756 106.667 106.667 106.667c58.91 0 106.667-47.756 106.667-106.667v0c0-58.91-47.756-106.667-106.667-106.667v0zM512 746.667c-35.346 0-64-28.654-64-64s28.654-64 64-64c35.346 0 64 28.654 64 64v0c0 35.346-28.654 64-64 64v0zM512-43.733l-258.56 86.4-198.827-18.133c-1.081-0.097-2.339-0.153-3.609-0.153-23.564 0-42.667 19.103-42.667 42.667 0 4.235 0.617 8.326 1.766 12.188l-0.077-0.302 123.52 411.733h241.28l5.76-12.16c43.354-88.396 87.066-162.871 135.55-233.825l-4.137 6.412c44.346 64.54 88.058 139.014 126.534 216.546l4.879 10.867 5.76 12.16h241.28l123.52-411.733c1.158-3.694 1.825-7.941 1.825-12.344 0-23.564-19.103-42.667-42.667-42.667-1.394 0-2.772 0.067-4.131 0.197l0.173-0.013-198.613 18.56zM258.56 85.333l253.44-85.333 253.44 85.333 207.787-18.773-114.347 381.44h-182.827c-47.827-95.474-96.606-176.352-150.837-253.102l4.064 6.062-17.28-24.32-17.28 24.32c-50.168 70.688-98.946 151.566-141.707 236.008l-5.067 11.032h-182.827l-114.347-381.227z" />
<glyph unicode="&#xe90d;" glyph-name="house2" d="M967.242 412.693l-413.147 408.702c-14.622 14.462-38.407 14.462-53.021 0l-413.141-408.702c-7.36-7.277-7.423-19.148-0.142-26.508 7.286-7.36 18.245-7.432 25.604-0.146l87.888 87.782v-346.27c0-19.387 19.455-30.489 43.758-30.489h168.712c20.38 0 31.077 9.848 31.077 30.489v205.976c9.21 1.583 5.523 7.082 6.415 7.082h145.253c0.156-9.21-1.242-4.867-1.242-6.139v-206.92c0-19.387 19.146-30.489 43.448-30.489h168.712c20.38 0 31.386 9.848 31.386 30.489v357.821l101.24-99.332c3.656-3.615 8.835-5.418 13.6-5.418 4.828 0 9.869 1.858 13.534 5.565 7.283 7.36 7.426 19.231 0.067 26.508zM800.941 134.925h-162.236c-1.698 0 2.601-3.108-6.609-2.815v202.36c0 24.027-11.427 44.001-30.883 44.001h-149.968c-20.773 0-44.277-23.791-44.277-44.001v-199.546h-161.927c-1.698 0 3.314-3.108-5.895-2.815v378.776l286.847 283.858 274.948-272.281v-387.536z" />
<glyph unicode="&#xe90e;" glyph-name="car" d="M895.283 560.067h-79.032c-3.604-0.061-7.168-1.024-10.301-2.765l-35.615 107.090c-11.366 60.887-54.354 90.317-107.131 90.317h-334.705c-60.621 0-97.403-39.444-107.151-90.255l-35.717-107.438c-3.126 1.892-6.892 3.034-10.92 3.092h-79.028c-0.012 0-0.027 0-0.041 0-12.129 0-21.963-9.827-21.975-21.953v-19.047c0-12.104 9.851-21.975 22.016-21.975l29.901-5.12c-9.343-18.076-14.821-39.454-14.821-62.113 0-0.685 0.005-1.369 0.015-2.052l-0.001 0.103-11.080-126.362c0-3.645 0.266-7.373 0.717-11.141-0.42-2.136-0.679-4.609-0.716-7.136v-152.055c0-21.647 17.572-39.158 39.26-39.158h59.904c0.024 0 0.053 0 0.082 0 21.634 0 39.175 17.527 39.199 39.156v48.826h515.4v-48.824c0-21.647 17.572-39.158 39.26-39.158h59.945c0.018 0 0.040 0 0.061 0 21.634 0 39.175 17.527 39.199 39.156v152.046c0 2.396-0.266 4.792-0.737 7.148 0.451 3.768 0.737 7.496 0.737 11.162l-11.1 126.362c0 24.596-5.407 45.67-14.868 64.143l29.225 4.956c0.018 0 0.040 0 0.061 0 12.136 0 21.975 9.839 21.975 21.975 0 0 0 0 0 0v0 19.046c-0.058 12.135-9.897 21.952-22.034 21.975h-0.002zM247.726 582.533l26.153 69.468 0.328 1.638c2.601 14.008 8.397 16.548 16.998 27.361h409.559c8.684-11.141 14.090-13.967 16.445-27.259l26.604-71.27 9.748-38.707c-2.212-28.324-36.352-50.688-64.676-50.688h-386.232c-28.385 0-62.525 22.364-64.717 50.708l9.789 38.748zM266.035 252.15c-32.431 0.483-58.535 26.886-58.535 59.386 0 32.801 26.591 59.392 59.392 59.392 1.522 0 3.030-0.057 4.523-0.17l-0.199 0.012c30.887-2.323 55.067-27.955 55.067-59.234 0-32.801-26.591-59.392-59.392-59.392-0.301 0-0.602 0.002-0.902 0.007l0.045-0.001zM598.241 295.916c-0.035-9.746-7.944-17.633-17.695-17.633 0 0 0 0 0 0h-166.851c0 0 0 0 0 0-9.744 0-17.648 7.876-17.695 17.608v49.586c0 9.748 7.946 17.633 17.695 17.633h166.851c9.748 0 17.695-7.885 17.695-17.613v-49.582zM725.504 252.15c-0.030 0-0.066 0-0.102 0-32.773 0-59.345 26.544-59.392 59.306v0.004c0.047 32.766 26.619 59.31 59.392 59.31 0.036 0 0.072 0 0.108 0h-0.006c0.024 0 0.053 0 0.082 0 32.773 0 59.345-26.544 59.392-59.306v-0.004c-0.070-32.771-26.652-59.31-59.433-59.31-0.014 0-0.029 0-0.043 0h0.002z" />
<glyph unicode="&#xe90f;" glyph-name="heart" d="M511.987 48.073c-11.778 0-23.397 3.967-32.717 11.169-6.322 4.887-63.714 49.503-131.443 110.731-90.284 81.62-155.042 152.78-192.476 211.504-16.984 26.669-33.263 53.062-45.803 82.796-14.956 35.462-22.225 70.536-22.225 107.227 0 67.594 24.281 131.373 68.372 179.587 45.312 49.55 105.938 76.838 170.712 76.838 72.511 0 140.648-35.542 185.59-94.887 44.955 59.343 113.097 94.887 185.596 94.887 64.765 0 125.388-27.288 170.701-76.837 44.098-48.219 68.383-111.998 68.383-179.588 0-83.24-39.333-144.955-68.054-190.018-37.422-58.726-102.177-129.888-192.467-211.51-67.731-61.229-125.131-105.847-131.453-110.732-9.325-7.202-20.942-11.167-32.716-11.167zM326.407 777.927c-50.567 0-98.090-21.515-133.814-60.581-35.642-38.975-55.27-90.771-55.27-145.845 0-29.887 5.984-58.605 18.295-87.797 11.030-26.153 26.114-50.57 41.901-75.358 84.647-132.791 303.070-302.387 312.327-309.542 0.781-0.604 1.595-0.73 2.141-0.73s1.36 0.127 2.146 0.734c9.253 7.15 227.699 176.748 312.323 309.545 28.228 44.291 60.22 94.487 60.22 163.148 0 55.070-19.632 106.866-55.279 145.845-35.727 39.065-83.246 60.58-133.805 60.58-67.126 0-129.784-39.45-163.522-102.955-4.338-8.167-12.831-13.271-22.078-13.271-0.001 0-0.002 0-0.003 0-9.248 0.001-17.74 5.107-22.078 13.276-33.717 63.502-96.369 102.951-163.504 102.951z" />
<glyph unicode="&#xe910;" glyph-name="house" d="M961.741 451.063l-430.805 439.433c-5.894 6.033-14.111 9.774-23.202 9.774s-17.308-3.741-23.196-9.768l-0.006-0.006-430.737-439.433c-12.161-12.42-19.665-29.442-19.665-48.216 0-0.278 0.002-0.556 0.005-0.833v0.042c0.41-37.547 31.036-67.575 67.806-67.575h44.399v-347.281h722.799v347.281h45.329c0.022 0 0.049 0 0.075 0 18.537 0 35.285 7.659 47.252 19.986l0.016 0.016c12.075 12.356 19.525 29.276 19.525 47.937 0 0.136 0 0.272-0.001 0.408v-0.021c0 18.091-7.074 35.447-19.661 48.188l0.068 0.068zM566.246 63.855h-117.018v217.66h117.018v-217.66zM793.916 411.273v-347.418h-160.811v243.191c0 23.552-18.705 42.658-41.788 42.658h-167.168c-23.074 0-41.779-19.098-41.779-42.667v-243.183h-160.811v347.418h-100.292l386.603 394.24 24.064-24.576 362.411-369.664h-100.437z" />
<glyph unicode="&#xe911;" glyph-name="floor" d="M835.072 601.6h-233.472v199.68c0 12.8-9.728 25.6-25.6 25.6h-384c-12.8 0-25.6-9.728-25.6-25.6v-706.56c0-12.8 9.728-25.6 25.6-25.6h640c12.8 0 25.6 9.728 25.6 25.6v484.352c3.072 12.8-6.656 22.528-22.528 22.528zM437.248 115.2h-92.16v189.44h92.16v-189.44zM558.592 120.32h-80.384v207.872c0 12.288-10.24 22.528-22.528 22.528h-134.144c-12.288 0-22.528-10.24-22.528-22.528v-207.872h-81.92v655.36h337.92v-655.36h3.584zM816.128 120.32h-209.92v71.68h118.272c13.312 0 26.624 10.24 25.6 27.136-0.512 13.824-12.8 24.064-26.624 24.064h-117.248v66.56h118.272c12.8 0 25.6 9.728 25.6 25.6 0 12.8-9.728 25.6-25.6 25.6h-118.272v56.32h118.272c12.8 0 25.6 9.728 25.6 25.6 0 12.8-9.728 25.6-25.6 25.6h-118.272v87.040h209.92v-435.2z" />
<glyph unicode="&#xe912;" glyph-name="data" d="M680.96 473.6h102.4l204.8 174.080c-10.24 20.48-20.48 40.96-30.72 61.44l-276.48-235.52zM537.6 960v-81.92l81.92 71.68c-25.6 5.12-56.32 10.24-81.92 10.24v0zM962.56 473.6l56.32 51.2c-5.12 25.6-10.24 46.080-15.36 71.68l-143.36-122.88h102.4zM793.6 878.080l-256-220.16v-87.040l307.2 266.24c-15.36 15.36-30.72 25.6-51.2 40.96v0zM680.96 934.4l-143.36-122.88v-87.040l209.92 179.2c-25.6 10.24-46.080 20.48-66.56 30.72v0zM926.72 750.080c-10.24 15.36-25.6 35.84-40.96 51.2l-348.16-296.96v-30.72h66.56l322.56 276.48zM486.4 960c-271.36-10.24-486.4-235.52-486.4-512 0-117.76 40.96-230.4 107.52-317.44l378.88 327.68v501.76zM522.24 422.4l-378.88-327.68c92.16-97.28 220.16-158.72 368.64-158.72 276.48 0 496.64 215.040 512 486.4h-501.76z" />
<glyph unicode="&#xe913;" glyph-name="datacoins" d="M682.667 874.667c-141.397 0-256-47.787-256-106.667s114.603-106.667 256-106.667 256 47.787 256 106.667-114.603 106.667-256 106.667zM426.667 725.333v-85.333c0-59.733 115.2-106.667 256-106.667s256 46.933 256 106.667v85.333c0-59.733-115.2-106.667-256-106.667s-256 46.933-256 106.667zM938.667 601.344c0-64-115.2-110.677-256-110.677s-256 46.933-256 106.667v-68.011c102.4-12.8 192.256-55.979 209.323-119.979h46.677c140.8 0 256 46.933 256 106.667v85.333zM341.333 490.667c-140.8 0-256-46.933-256-106.667s115.2-106.667 256-106.667 256 46.933 256 106.667-115.2 106.667-256 106.667zM938.667 469.333c0-59.733-115.2-106.667-256-106.667h-42.667v-85.333h42.667c140.8 0 256 46.933 256 106.667v85.333zM85.333 341.333v-85.333c0-59.733 115.2-106.667 256-106.667s256 46.933 256 106.667v85.333c0-59.733-115.2-106.667-256-106.667s-256 46.933-256 106.667zM938.667 341.333c0-59.733-115.2-106.667-256-106.667h-42.667v-85.333h42.667c140.8 0 256 46.933 256 106.667v85.333zM85.333 213.333v-85.333c0-59.733 115.2-106.667 256-106.667s256 46.933 256 106.667v85.333c0-59.733-115.2-106.667-256-106.667s-256 46.933-256 106.667z" />
</font>
</defs>
</svg>
